<svg xmlns="http://www.w3.org/2000/svg" width="1200" height="630" viewBox="0 0 1200 630" role="img" aria-labelledby="title desc">
  <title id="title">Sovun Assistant</title>
  <desc id="desc">Human-approved AI operations for contractors and service businesses.</desc>
  <defs>
    <linearGradient id="bg" x1="0" y1="0" x2="1" y2="1">
      <stop offset="0" stop-color="#fffaf0"/>
      <stop offset="0.55" stop-color="#f7f3ea"/>
      <stop offset="1" stop-color="#dff7f2"/>
    </linearGradient>
    <linearGradient id="teal" x1="0" y1="0" x2="1" y2="1">
      <stop offset="0" stop-color="#18b7a4"/>
      <stop offset="1" stop-color="#62e6d5"/>
    </linearGradient>
    <filter id="shadow" x="-20%" y="-20%" width="140%" height="140%">
      <feDropShadow dx="0" dy="26" stdDeviation="28" flood-color="#071015" flood-opacity="0.20"/>
    </filter>
  </defs>
  <rect width="1200" height="630" fill="url(#bg)"/>
  <circle cx="145" cy="90" r="190" fill="#18b7a4" opacity="0.20"/>
  <circle cx="1045" cy="85" r="210" fill="#1f7ae0" opacity="0.13"/>
  <rect x="78" y="82" width="1044" height="466" rx="44" fill="#fffdf8" opacity="0.78" filter="url(#shadow)"/>
  <rect x="116" y="124" width="94" height="94" rx="28" fill="url(#teal)"/>
  <path d="M176 148c-27-5-44 6-44 24 0 42 65 20 65 56 0 18-19 30-51 22" fill="none" stroke="#071015" stroke-width="15" stroke-linecap="round"/>
  <text x="236" y="168" font-family="Inter, ui-sans-serif, system-ui, -apple-system, Segoe UI, Arial" font-size="50" font-weight="900" fill="#071015" letter-spacing="-2">Sovun</text>
  <text x="236" y="213" font-family="Inter, ui-sans-serif, system-ui, -apple-system, Segoe UI, Arial" font-size="25" font-weight="900" fill="#18b7a4" letter-spacing="7">ASSISTANT</text>
  <text x="116" y="326" font-family="Inter, ui-sans-serif, system-ui, -apple-system, Segoe UI, Arial" font-size="68" font-weight="900" fill="#071015" letter-spacing="-4">Human-approved AI operations</text>
  <text x="116" y="400" font-family="Inter, ui-sans-serif, system-ui, -apple-system, Segoe UI, Arial" font-size="44" font-weight="800" fill="#263742" letter-spacing="-2">for contractors and service companies.</text>
  <text x="116" y="478" font-family="Inter, ui-sans-serif, system-ui, -apple-system, Segoe UI, Arial" font-size="28" font-weight="650" fill="#52626e">Email intake • Leads • Estimates • Scheduling • Daily briefings</text>
</svg>
